# xmcd
#
# Track frame offsets:
#	150
#	3986
#	15611
#	34511
#	49661
#	62036
#	78191
#	101433
#	110451
#	154381
#	173186
#	185711
#	207944
#
# Disc length: 2922 seconds
#
# Revision: 0
# Processed by: cddbd v1.5.1PL0 Copyright (c) Steve Scherf et al.
# Submitted via: dBpowerAMP V4.0
#
DISCID=9f0b680d
DTITLE=Tom Waits - 1975-02-19 - Denver, Ebbet's Field
DYEAR=1900
DGENRE=
TTITLE0=Introduction
TTITLE1=Diamonds On My Windshield
TTITLE2=On a Foggy Night
TTITLE3=Eggs and Sausage
TTITLE4=Ice Cream Man
TTITLE5=San Diego Serenade
TTITLE6=Big Joe and Phantom 309
TTITLE7=New Coat of Paint
TTITLE8=Spare Parts I
TTITLE9=Ol' 55
TTITLE10=The Ghost of Saturday Night
TTITLE11=The Heart of Saturday Night
TTITLE12=Nobody
EXTD=
EXTT0=
EXTT1=
EXTT2=
EXTT3=
EXTT4=
EXTT5=
EXTT6=
EXTT7=
EXTT8=
EXTT9=
EXTT10=
EXTT11=
EXTT12=
PLAYORDER=
